#!OML:ASF X:\für Bonn\!DataBase\2005_08_10_Bjorn_Final\c3d\bjorn.ASF
:FULLY-SPECIFIED
:DEGREES
47
root -2.61954 18.7622 11.5672 -181.39 24.8513 179.334
lowerback 0.909641 4.95516 -6.53095
upperback 10.2635 8.96275 -5.23104
thorax 10.4792 4.68891 -1.18734
lowerneck -8.44986 1.46176 5.54248
upperneck 2.28596 1.50409 -2.15902
head 2.26898 0.759757 -1.59461
rclavicle -2.3059e-014 4.6118e-014
rhumerus 27.5754 19.9156 -85.7776
rradius 96.1837
rwrist 36.5005
rhand -48.0898 14.6397
rfingers 7.12502
rthumb -20.7547 -14.2704
lclavicle -2.3059e-014 4.6118e-014
lhumerus 16.4621 -43.5527 83.2143
lradius 81.1276
lwrist 42.6903
lhand -44.7004 -1.29296
lfingers 7.12502
lthumb -17.4953 27.9398
rfemur 540.789 -173.549 -533.018
rtibia 38.5834
rfoot -19.1768 7.73761
rtoes -32.8682
lfemur 343.09 4.35728 344.335
ltibia 39.4069
lfoot -15.0296 7.01388
ltoes -19.4124
48
root -2.60709 18.731 11.6023 -181.775 24.8705 179.116
lowerback 0.676891 5.03089 -6.36112
upperback 10.0411 9.00324 -5.2199
thorax 10.3765 4.70505 -1.25069
lowerneck -7.96734 1.39761 5.48862
upperneck 2.86682 1.43331 -2.07243
head 2.36901 0.72889 -1.56274
rclavicle 4.05521e-014 -1.03368e-013
rhumerus 28.3906 19.7257 -85.4899
rradius 96.1815
rwrist 36.5604
rhand -47.988 14.462
rfingers 7.12502
rthumb -20.6569 -14.4588
lclavicle 4.05521e-014 -1.03368e-013
lhumerus 17.9509 -43.3991 82.5146
lradius 81.7959
lwrist 42.0299
lhand -44.1138 -1.9478
lfingers 7.12502
lthumb -16.9308 27.3342
rfemur 541.748 -173.277 -533.318
rtibia 37.899
rfoot -19.1075 7.70606
rtoes -33.6325
lfemur 343.083 4.29792 344.22
ltibia 39.8681
lfoot -15.1835 7.08066
ltoes -19.4265
49
root -2.59439 18.6909 11.6392 -182.164 24.8684 178.895
lowerback 0.451398 5.09692 -6.21777
upperback 9.81502 9.026 -5.18743
thorax 10.2587 4.70828 -1.27985
lowerneck -7.45983 1.33826 5.40058
upperneck 3.45171 1.37881 -2.00261
head 2.46624 0.707396 -1.52935
rclavicle -4.92986e-014 1.30403e-013
rhumerus 29.1584 19.5581 -85.2071
rradius 96.1509
rwrist 36.623
rhand -48.0062 14.4305
rfingers 7.12502
rthumb -20.6744 -14.4884
lclavicle -4.92986e-014 1.30403e-013
lhumerus 19.3684 -43.1385 81.9256
lradius 82.4241
lwrist 41.3785
lhand -43.5538 -2.45918
lfingers 7.12502
lthumb -16.3916 26.8682
rfemur 542.699 -173.043 -533.596
rtibia 37.1627
rfoot -19.1225 7.88613
rtoes -34.08
lfemur 343.02 4.27077 344.109
ltibia 40.4119
lfoot -15.3524 7.07309
ltoes -19.2357
50
root -2.58155 18.652 11.677 -182.52 24.8684 178.706
lowerback 0.2029 5.13631 -6.04898
upperback 9.60707 9.01606 -5.14608
thorax 10.1783 4.69594 -1.31184
lowerneck -7.05859 1.30278 5.31852
upperneck 4.10819 1.35687 -1.97966
head 2.60967 0.703296 -1.51149
rclavicle -3.57812e-014 -4.77083e-015
rhumerus 29.998 19.4744 -84.8609
rradius 96.0931
rwrist 36.6547
rhand -48.1566 14.5922
rfingers 7.12502
rthumb -20.8189 -14.3109
lclavicle -3.57812e-014 -4.77083e-015
lhumerus 20.8228 -42.7359 81.3164
lradius 82.9966
lwrist 40.81
lhand -43.0608 -2.98781
lfingers 7.12502
lthumb -15.9169 26.3781
rfemur 543.616 -172.823 -533.826
rtibia 36.391
rfoot -19.3028 8.30097
rtoes -34.2562
lfemur 342.919 4.27006 344.034
ltibia 40.9858
lfoot -15.5206 7.06729
ltoes -19.2248
51
root -2.56753 18.6135 11.7133 -182.874 24.8444 178.505
lowerback -0.0591029 5.15729 -5.92407
upperback 9.3925 8.97795 -5.0812
thorax 10.0885 4.66329 -1.2971
lowerneck -6.66267 1.27451 5.23011
upperneck 4.80466 1.35468 -2.02995
head 2.76998 0.70895 -1.51597
rclavicle -6.67916e-014 -1.90833e-014
rhumerus 30.7727 19.4491 -84.4666
rradius 96.0334
rwrist 36.6387
rhand -48.2723 14.6528
rfingers 7.12502
rthumb -20.9301 -14.238
lclavicle -6.67916e-014 -1.90833e-014
lhumerus 22.1628 -42.219 80.8682
lradius 83.4609
lwrist 40.3139
lhand -42.5477 -3.84204
lfingers 7.12502
lthumb -15.4227 25.5626
rfemur 544.497 -172.618 -534.052
rtibia 35.6299
rfoot -19.6873 8.68284
rtoes -34.3385
lfemur 342.812 4.21988 343.941
ltibia 41.5665
lfoot -15.7255 7.05575
ltoes -19.1515
52
root -2.55272 18.5759 11.75 -183.225 24.814 178.304
lowerback -0.318449 5.17671 -5.77872
upperback 9.19702 8.94947 -5.04417
thorax 10.0285 4.64092 -1.32075
lowerneck -6.31953 1.24882 5.19712
upperneck 5.49489 1.35389 -2.06061
head 2.93948 0.719328 -1.52386
rclavicle -1.07344e-014 7.15625e-014
rhumerus 31.5708 19.4017 -84.0784
rradius 95.9971
rwrist 36.6164
rhand -48.2573 14.4868
rfingers 7.12502
rthumb -20.9156 -14.4056
lclavicle -1.07344e-014 7.15625e-014
lhumerus 23.5457 -41.6905 80.3927
lradius 83.8641
lwrist 39.9619
lhand -42.0361 -4.97049
lfingers 7.12502
lthumb -14.9299 24.4714
rfemur 545.346 -172.503 -534.237
rtibia 34.8816
rfoot -20.2453 8.96097
rtoes -34.2339
lfemur 342.714 4.17913 343.849
ltibia 42.1248
lfoot -15.8868 7.08342
ltoes -19.115
53
root -2.53841 18.5401 11.7893 -183.555 24.7473 178.1
lowerback -0.576483 5.17329 -5.64277
upperback 9.01451 8.89382 -5.00449
thorax 9.98141 4.60478 -1.33839
lowerneck -6.06162 1.24039 5.09245
upperneck 6.2379 1.38153 -2.0428
head 3.1436 0.746544 -1.50185
rclavicle -8.38871e-014 1.1609e-013
rhumerus 32.3622 19.3755 -83.666
rradius 95.9573
rwrist 36.5442
rhand -48.1773 14.3337
rfingers 7.12502
rthumb -20.8388 -14.5672
lclavicle -8.38871e-014 1.1609e-013
lhumerus 24.9523 -41.067 79.9199
lradius 84.2714
lwrist 39.864
lhand -41.5546 -5.92457
lfingers 7.12502
lthumb -14.4661 23.5512
rfemur 546.117 -172.369 -534.4
rtibia 34.1807
rfoot -20.9476 9.09818
rtoes -34.421
lfemur 342.59 4.05338 343.75
ltibia 42.665
lfoot -16.0573 7.12579
ltoes -19.0816
54
root -2.52249 18.5038 11.832 -183.874 24.6528 177.936
lowerback -0.806073 5.16014 -5.48048
upperback 8.86887 8.83582 -4.98146
thorax 9.96719 4.57357 -1.3888
lowerneck -5.95711 1.24067 5.06149
upperneck 7.00901 1.40994 -2.00733
head 3.38968 0.778254 -1.48735
rclavicle 1.00983e-013 -2.70347e-014
rhumerus 33.2054 19.3056 -83.2958
rradius 95.8812
rwrist 36.4183
rhand -48.0911 14.2896
rfingers 7.12502
rthumb -20.7559 -14.6204
lclavicle 1.00983e-013 -2.70347e-014
lhumerus 26.5262 -40.4557 79.2904
lradius 84.6375
lwrist 39.9722
lhand -41.2427 -6.74109
lfingers 7.12502
lthumb -14.1655 22.756
rfemur 546.835 -172.269 -534.478
rtibia 33.5264
rfoot -21.7398 9.12304
rtoes -34.3572
lfemur 342.461 3.90891 343.702
ltibia 43.1995
lfoot -16.2057 7.16426
ltoes -19.1399
55
root -2.50674 18.4669 11.8753 -184.177 24.5691 177.811
lowerback -1.04465 5.15059 -5.27516
upperback 8.73946 8.78309 -4.95119
thorax 9.98166 4.54762 -1.45249
lowerneck -5.87745 1.24067 5.00975
upperneck 7.78292 1.44171 -1.94752
head 3.64346 0.814111 -1.46043
rclavicle -4.33351e-014 5.725e-014
rhumerus 34.0209 19.2371 -82.9229
rradius 95.8073
rwrist 36.3254
rhand -48.0027 14.1683
rfingers 7.12502
rthumb -20.671 -14.7509
lclavicle -4.33351e-014 5.725e-014
lhumerus 28.088 -39.829 78.6716
lradius 84.9458
lwrist 40.0892
lhand -41.0562 -7.17629
lfingers 7.12502
lthumb -13.9858 22.3333
rfemur 547.485 -172.089 -534.54
rtibia 32.9292
rfoot -22.5788 9.06104
rtoes -34.5784
lfemur 342.329 3.75098 343.687
ltibia 43.7329
lfoot -16.3202 7.24088
ltoes -19.1177
56
root -2.49024 18.4291 11.9194 -184.453 24.4814 177.699
lowerback -1.25982 5.14577 -5.05036
upperback 8.55752 8.72302 -4.937
thorax 9.92794 4.52028 -1.55029
lowerneck -5.67341 1.23797 4.94548
upperneck 8.5315 1.48007 -1.83358
head 3.86548 0.858577 -1.41174
rclavicle 1.04561e-013 -3.33958e-014
rhumerus 34.6731 19.1571 -82.6442
rradius 95.7117
rwrist 36.2114
rhand -47.9014 14.1055
rfingers 7.12502
rthumb -20.5737 -14.8243
lclavicle 1.04561e-013 -3.33958e-014
lhumerus 29.475 -39.2674 78.1314
lradius 85.0696
lwrist 40.1537
lhand -40.8523 -7.83823
lfingers 7.12502
lthumb -13.7893 21.6848
rfemur 548.056 -171.933 -534.559
rtibia 32.3789
rfoot -23.3675 8.88498
rtoes -34.8262
lfemur 342.169 3.59933 343.692
ltibia 44.2678
lfoot -16.4644 7.27352
ltoes -19.0733
57
root -2.47322 18.3927 11.9649 -184.69 24.3906 177.64
lowerback -1.47465 5.14389 -4.79749
upperback 8.37276 8.66097 -4.907
thorax 9.87195 4.49231 -1.64735
lowerneck -5.40251 1.21928 4.93583
upperneck 9.19942 1.50252 -1.76344
head 4.04849 0.896206 -1.38753
rclavicle -1.35174e-014 2.70347e-014
rhumerus 35.2577 19.0571 -82.3711
rradius 95.6076
rwrist 36.097
rhand -47.8229 14.1264
rfingers 7.12502
rthumb -20.4983 -14.8115
lclavicle -1.35174e-014 2.70347e-014
lhumerus 30.8161 -38.7059 77.6687
lradius 85.0613
lwrist 40.1446
lhand -40.5963 -8.53473
lfingers 7.12502
lthumb -13.5426 21.0049
rfemur 548.556 -171.797 -534.495
rtibia 31.8874
rfoot -24.1221 8.61525
rtoes -35.1098
lfemur 341.985 3.48252 343.751
ltibia 44.7979
lfoot -16.5417 7.3302
ltoes -19.1918
58
root -2.45556 18.3576 12.0098 -184.906 24.297 177.583
lowerback -1.70145 5.1378 -4.56813
upperback 8.18817 8.5924 -4.86017
thorax 9.81726 4.45736 -1.71396
lowerneck -5.12635 1.19839 4.92825
upperneck 9.82148 1.52501 -1.69532
head 4.21555 0.934806 -1.36374
rclavicle 1.20066e-013 -9.54166e-014
rhumerus 35.8519 18.9311 -82.0977
rradius 95.4674
rwrist 36.0139
rhand -47.7092 14.1258
rfingers 7.12502
rthumb -20.3889 -14.8238
lclavicle 1.20066e-013 -9.54166e-014
lhumerus 32.0462 -38.1362 77.2937
lradius 84.9484
lwrist 39.9708
lhand -40.3807 -9.33047
lfingers 7.12502
lthumb -13.3348 20.2229
rfemur 548.993 -171.698 -534.404
rtibia 31.4401
rfoot -24.8197 8.31044
rtoes -35.3182
lfemur 341.788 3.33884 343.807
ltibia 45.3147
lfoot -16.6529 7.37765
ltoes -19.2889
